<svg width="42" height="44" xmlns="http://www.w3.org/2000/svg"><g fill="none"><circle fill="#000" cx="38" cy="20" r="1"/><circle fill="#000" cx="38" cy="24" r="1"/><circle fill="#000" cx="4" cy="20" r="1"/><circle fill="#000" cx="10" cy="9" r="1"/><circle fill="#000" cx="14" cy="7" r="1"/><circle fill="#000" cx="32" cy="9" r="1"/><circle fill="#000" cx="31" cy="16" r="1"/><circle fill="#000" cx="31" cy="27" r="1"/><circle fill="#000" cx="11" cy="16" r="1"/><circle fill="#000" cx="11" cy="27" r="1"/><circle fill="#000" cx="21" cy="11" r="1"/><circle fill="#000" cx="28" cy="7" r="1"/><circle fill="#000" cx="4" cy="24" r="1"/><circle fill="#000" cx="23" cy="22" r="1"/><circle fill="#000" cx="19" cy="22" r="1"/><path d="M14.4 24.9c0 .1 0 .2.1.3l.2.9c.3 1.6 1.2 2.9 2.6 3.8 1 .7 2.2 1 3.3 1h1c1.2 0 2.3-.4 3.3-1 1.3-.9 2.3-2.3 2.6-3.8l.2-.9c0-.1 0-.2.1-.3.8-.3 1.4-1 1.4-1.9v-1c0-.7-.4-1.4-1-1.7V20c0-2.8-2.2-5-5-5h-4c-2.8 0-5 2.2-5 5v.3c-.6.3-1 1-1 1.7v1c-.2.9.4 1.6 1.2 1.9zM15 22c.6 0 1-.4 1-1v-1c0-1.7 1.3-3 3-3h4c1.7 0 3 1.3 3 3v1c0 .6.4 1 1 1v1h-.3c-.5 0-.9.4-1 .9v.4c0 .2-.1.4-.1.6l-.2.9c-.2 1.1-.8 2-1.7 2.6-.7.4-1.4.6-2.2.6h-1c-.8 0-1.6-.2-2.2-.7-.9-.6-1.5-1.5-1.7-2.6l-.2-.9c0-.2-.1-.4-.1-.6v-.4c-.1-.5-.5-.9-1-.9H15V22z" fill="#000"/><path d="M19 26c0 .6.4 1 1 1h2c.6 0 1-.4 1-1s-.4-1-1-1h-2c-.6 0-1 .4-1 1z" fill="#000"/><path d="M38 17c2.2 0 4-1.8 4-4s-1.8-4-4-4-4 1.8-4 4 1.8 4 4 4zm0-6c1.1 0 2 .9 2 2s-.9 2-2 2-2-.9-2-2 .9-2 2-2zm0 16c-2.2 0-4 1.8-4 4s1.8 4 4 4 4-1.8 4-4-1.8-4-4-4zm0 6c-1.1 0-2-.9-2-2s.9-2 2-2 2 .9 2 2-.9 2-2 2zM4 17c2.2 0 4-1.8 4-4S6.2 9 4 9s-4 1.8-4 4 1.8 4 4 4zm0-6c1.1 0 2 .9 2 2s-.9 2-2 2-2-.9-2-2 .9-2 2-2zm0 16c-2.2 0-4 1.8-4 4s1.8 4 4 4 4-1.8 4-4-1.8-4-4-4zm0 6c-1.1 0-2-.9-2-2s.9-2 2-2 2 .9 2 2-.9 2-2 2zM21 8c2.2 0 4-1.8 4-4s-1.8-4-4-4-4 1.8-4 4 1.8 4 4 4zm0-6c1.1 0 2 .9 2 2s-.9 2-2 2-2-.9-2-2 .9-2 2-2z" fill="#EF00B3"/><path d="M31 34.4l-5.8-1.2c-.5-.1-1.1.2-1.2.8-.1.5.2 1.1.8 1.2l5.8 1.2c1.4.3 2.4 1.5 2.4 2.9v1c-3.3 1.1-7.5 1.7-12 1.7s-8.7-.6-12-1.7v-1c0-1.4 1-2.7 2.4-2.9l6.7-1.3H20v4c0 .6.4 1 1 1s1-.4 1-1v-5c0-.6-.4-1-1-1h-3.2L11 34.4c-2.3.5-4 2.5-4 4.9V41c0 .4.3.8.7.9C11.2 43.3 16 44 21 44s9.8-.7 13.3-2.1c.4-.1.7-.5.7-.9v-1.7c0-2.4-1.7-4.5-4-4.9z" fill="#000"/></g></svg>