<svg xmlns="http://www.w3.org/2000/svg" viewBox="0 0 44 44"><path d="M36 16c0-1.7-1.3-3-3-3s-3 1.3-3 3 1.3 3 3 3 3-1.3 3-3zm-4 0c0-.6.4-1 1-1s1 .4 1 1-.4 1-1 1-1-.4-1-1z"/><path d="M40 2H23V1c0-.6-.4-1-1-1s-1 .4-1 1v1H4C2.3 2 1 3.3 1 5s1.3 3 3 3h32c.6 0 1-.4 1-1s-.4-1-1-1H4c-.6 0-1-.4-1-1s.4-1 1-1h36c.6 0 1 .4 1 1s-.4 1-1 1-1 .4-1 1v22c0 .6-.4 1-1 1H6c-.6 0-1-.4-1-1V11c0-.6-.4-1-1-1s-1 .4-1 1v18c0 1.7 1.3 3 3 3h15v7.1c-.9.2-1.6.7-2.2 1.4-.7.9-1.7 1.4-2.7 1.4H16c-.6 0-1 .4-1 1s.4 1 1 1h.2c1.6 0 3.1-.8 4.2-2.2.8-1 2.4-1 3.2 0 1.1 1.4 2.6 2.2 4.2 2.2h.2c.6 0 1-.4 1-1s-.4-1-1-1h-.2c-1 0-1.9-.5-2.7-1.4-.6-.7-1.3-1.2-2.2-1.4V32h15c1.7 0 3-1.3 3-3V7.8c1.2-.4 2-1.5 2-2.8.1-1.7-1.2-3-2.9-3z"/><path d="M14 20v3.3c-.6.3-1 1-1 1.7 0 1.1.9 2 2 2s2-.9 2-2c0-.7-.4-1.4-1-1.7V20c0-1.7 1.3-3 3-3h5.6l-.3.3c-.4.4-.4 1 0 1.4.2.2.5.3.7.3s.5-.1.7-.3l2-2c.4-.4.4-1 0-1.4l-2-2c-.4-.4-1-.4-1.4 0s-.4 1 0 1.4l.3.3H19c-2.8 0-5 2.2-5 5zm13.7 2.3c-.4-.4-1-.4-1.4 0l-.8.8-.8-.8c-.4-.4-1-.4-1.4 0s-.4 1 0 1.4l.8.8-.8.8c-.4.4-.4 1 0 1.4.2.2.5.3.7.3s.5-.1.7-.3l.8-.8.8.8c.2.2.5.3.7.3s.5-.1.7-.3c.4-.4.4-1 0-1.4l-.8-.8.8-.8c.4-.4.4-1 0-1.4zM8.3 14.7c.2.2.4.3.7.3s.5-.1.7-.3l.8-.8.8.8c.2.2.5.3.7.3s.5-.1.7-.3c.4-.4.4-1 0-1.4l-.8-.8.8-.8c.4-.4.4-1 0-1.4s-1-.4-1.4 0l-.8.8-.8-.8c-.4-.4-1-.4-1.4 0s-.4 1 0 1.4l.8.8-.8.8c-.4.4-.4 1 0 1.4z"/></svg>