<svg width="45" height="44" xmlns="http://www.w3.org/2000/svg"><g fill="none"><path d="M41 2h-6V1c0-.6-.4-1-1-1s-1 .4-1 1v1H23V1c0-.6-.4-1-1-1s-1 .4-1 1v1H11V1c0-.6-.4-1-1-1S9 .4 9 1v1H3C1.3 2 0 3.3 0 5v22c0 1.7 1.3 3 3 3h18c.6 0 1-.4 1-1s-.4-1-1-1H3c-.6 0-1-.4-1-1V5c0-.6.4-1 1-1h6v2H8c-.6 0-1 .4-1 1s.4 1 1 1h4c.6 0 1-.4 1-1s-.4-1-1-1h-1V4h10v2h-1c-.6 0-1 .4-1 1s.4 1 1 1h4c.6 0 1-.4 1-1s-.4-1-1-1h-1V4h10v2h-1c-.6 0-1 .4-1 1s.4 1 1 1h4c.6 0 1-.4 1-1s-.4-1-1-1h-1V4h6c.6 0 1 .4 1 1v22c0 .6-.4 1-1 1H25c-.6 0-1 .4-1 1v11c0 .7.2 1.4.6 2h-5.1c.3-.6.6-1.3.6-2v-7c0-.6-.4-1-1-1s-1 .4-1 1v7c0 1.1-.9 2-2 2h-1c-.6 0-1 .4-1 1s.4 1 1 1h14c.6 0 1-.4 1-1s-.4-1-1-1h-1c-1.1 0-2-.9-2-2V30h15c1.7 0 3-1.3 3-3V5C44 3.3 42.7 2 41 2z" fill="#000"/><path d="M15 13H7c-.6 0-1 .4-1 1s.4 1 1 1h8c.6 0 1-.4 1-1s-.4-1-1-1zm-8 6h5c.6 0 1-.4 1-1s-.4-1-1-1H7c-.6 0-1 .4-1 1s.4 1 1 1zm0 4h8c.6 0 1-.4 1-1s-.4-1-1-1H7c-.6 0-1 .4-1 1s.4 1 1 1z" fill="#024FFF"/><circle fill="#000" cx="33" cy="17" r="1"/><circle fill="#000" cx="29" cy="17" r="1"/><path d="M23 17v1c0 .9.6 1.6 1.4 1.9 0 .1 0 .2.1.3l.2.9c.3 1.6 1.2 2.9 2.6 3.8 1 .7 2.2 1 3.3 1h1c1.2 0 2.3-.4 3.3-1 1.3-.9 2.3-2.3 2.6-3.8l.2-.9c0-.1 0-.2.1-.3.8-.3 1.4-1 1.4-1.9v-1c0-.7-.4-1.4-1-1.7V15c0-2.8-2.2-5-5-5h-4c-2.8 0-5 2.2-5 5v.3c-.8.3-1.2 1-1.2 1.7zm2 0c.6 0 1-.4 1-1v-1c0-1.7 1.3-3 3-3h4c1.7 0 3 1.3 3 3v1c0 .6.4 1 1 1v1h-.3c-.5 0-.9.4-1 .9v.4c0 .2-.1.4-.1.6l-.2.9c-.2 1.1-.8 2-1.7 2.6-.7.4-1.4.6-2.2.6h-1c-.8 0-1.6-.2-2.2-.7-.9-.6-1.5-1.5-1.7-2.6l-.2-.9c0-.2-.1-.4-.1-.6v-.4c-.1-.5-.5-.9-1-.9H25V17z" fill="#000"/><path d="M29 21c0 .6.4 1 1 1h2c.6 0 1-.4 1-1s-.4-1-1-1h-2c-.6 0-1 .4-1 1z" fill="#000"/></g></svg>