<svg width="49" height="49" xmlns="http://www.w3.org/2000/svg"><path d="M28.886 39.844a.727.727 0 0 0-.103 1.023c.575.704.891 1.593.891 2.504v4.128H18.625v-4.128c0-.911.317-1.8.891-2.504a.727.727 0 1 0-1.127-.92 5.43 5.43 0 0 0-1.219 3.424v4.856c0 .401.327.726.728.726h12.504a.727.727 0 0 0 .727-.726v-4.856a5.43 5.43 0 0 0-1.219-3.424.73.73 0 0 0-1.024-.103m-2.162-2.654a.73.73 0 0 0 .957-.375 3.857 3.857 0 0 0-3.531-5.396 3.857 3.857 0 0 0-3.854 3.852 3.858 3.858 0 0 0 3.854 3.854.728.728 0 0 0 0-1.454 2.402 2.402 0 0 1-2.399-2.4 2.402 2.402 0 0 1 2.399-2.398 2.401 2.401 0 0 1 2.199 3.359.727.727 0 0 0 .375.958m-8.826-18.703h12.504a.727.727 0 0 0 .727-.726v-4.856c0-1.244-.433-2.46-1.219-3.423a.728.728 0 0 0-1.127.92c.583.714.891 1.58.891 2.503v4.128H18.625v-4.128c0-.923.308-1.789.891-2.503a.727.727 0 1 0-1.127-.92 5.429 5.429 0 0 0-1.219 3.423v4.856c0 .401.327.726.728.726m3.126-12.953a.728.728 0 0 0 .727-.727 2.401 2.401 0 0 1 2.399-2.399 2.4 2.4 0 0 1 2.398 2.399 2.4 2.4 0 0 1-3.467 2.146.729.729 0 0 0-.653 1.302 3.857 3.857 0 0 0 5.575-3.448A3.858 3.858 0 0 0 24.15.953a3.858 3.858 0 0 0-3.854 3.854c0 .401.327.727.728.727M7.345 47.499H1.604v-4.128c0-.911.316-1.8.892-2.504a.726.726 0 1 0-1.127-.92A5.43 5.43 0 0 0 .15 43.371v4.856c0 .401.325.726.727.726h6.468a.727.727 0 1 0 0-1.454m4.521-7.655a.726.726 0 0 0-.104 1.023c.574.704.892 1.593.892 2.504v4.128h-1.43a.727.727 0 0 0 0 1.454h2.157a.726.726 0 0 0 .727-.726v-4.856a5.43 5.43 0 0 0-1.219-3.424.729.729 0 0 0-1.023-.103m-4.737-2.173a2.402 2.402 0 0 1-2.399-2.4 2.401 2.401 0 0 1 2.399-2.398 2.401 2.401 0 0 1 2.399 2.398c0 1.324-1.076 2.4-2.399 2.4zm0-6.252a3.856 3.856 0 0 0-3.853 3.852 3.858 3.858 0 0 0 3.853 3.854 3.858 3.858 0 0 0 3.853-3.854 3.857 3.857 0 0 0-3.853-3.852zm28.282 8.528a5.43 5.43 0 0 0-1.219 3.424v4.856a.726.726 0 1 0 1.454 0v-4.856c0-.911.316-1.8.891-2.504a.726.726 0 1 0-1.126-.92m11.519 0a.728.728 0 0 0-1.127.92c.575.704.892 1.593.892 2.504v4.128h-7.897a.728.728 0 0 0 0 1.454h8.624a.727.727 0 0 0 .728-.726v-4.856a5.43 5.43 0 0 0-1.22-3.424m-5.76-7.074a2.401 2.401 0 0 1 2.399 2.398c0 1.324-1.076 2.4-2.399 2.4a2.401 2.401 0 0 1-2.398-2.4 2.401 2.401 0 0 1 2.398-2.398zm0 6.252a3.858 3.858 0 0 0 3.854-3.854 3.857 3.857 0 0 0-3.854-3.852 3.857 3.857 0 0 0-3.853 3.852 3.858 3.858 0 0 0 3.853 3.854zM27.302 24.953c0 .402.325.728.727.728h12.415v2.586a.726.726 0 1 0 1.454 0v-3.314a.727.727 0 0 0-.728-.726H28.029a.726.726 0 0 0-.727.726M7.129 28.994a.726.726 0 0 0 .727-.727v-2.586h3.203a.728.728 0 0 0 0-1.454h-3.93a.726.726 0 0 0-.727.726v3.314c0 .402.325.727.727.727" fill="#0E0F12" fill-rule="evenodd"/></svg>