<svg width="44" height="34" xmlns="http://www.w3.org/2000/svg"><g fill="none"><path d="M44 17c0-2.4-1.7-4.4-4-4.9V3c0-1.7-1.3-3-3-3-1.5 0-2.7 1.1-3 2.6-4 4.2-7.3 6.3-11.2 7.1-.5.1-.9.6-.8 1.2.1.5.5.8 1 .8h.2C27 10.8 30.3 9 34 5.4v23.1c-3.7-3.5-7-5.4-10.8-6.2-1.3-.2-2.7-.3-4.2-.3-.6 0-1 .4-1 1v1H5V10h13v9c0 .6.4 1 1 1s1-.4 1-1v-9c0-1.1-.9-2-2-2H5c-1.1 0-2 .9-2 2v2H2c-1.1 0-2 .9-2 2v6c0 1.1.9 2 2 2h1v2c0 1.1.9 2 2 2h2v5.8C7 33 8 34 9.2 34c.9 0 1.7-.6 2-1.4l1.7-4.6H14c.6 0 1-.4 1-1v-1h3c1.1 0 2-.9 2-2 1 0 1.9.2 2.8.3 3.9.8 7.3 2.9 11.2 7.1.2 1.4 1.5 2.6 3 2.6 1.7 0 3-1.3 3-3v-9.1c2.3-.5 4-2.5 4-4.9zM2 20v-6h1v6H2zm7.4 11.9c-.1.1-.4.1-.4-.1V26h2.6l-2.2 5.9zM38 31c0 .6-.4 1-1 1s-1-.4-1-1V3c0-.6.4-1 1-1s1 .4 1 1v28zm2-11.2v-5.7c1.2.4 2 1.5 2 2.8 0 1.3-.8 2.5-2 2.9z" fill="#000"/><path d="M14 19H9c-.6 0-1 .4-1 1s.4 1 1 1h5c.6 0 1-.4 1-1s-.4-1-1-1zm0-3H9c-.6 0-1 .4-1 1s.4 1 1 1h5c.6 0 1-.4 1-1s-.4-1-1-1zm0-3H9c-.6 0-1 .4-1 1s.4 1 1 1h5c.6 0 1-.4 1-1s-.4-1-1-1z" fill="#EF00B3"/></g></svg>