<svg width="44" height="45" xmlns="http://www.w3.org/2000/svg"><g fill="none"><path d="M13 26c0 .6.4 1 1 1h2v1c0 .6.4 1 1 1s1-.4 1-1v-1h3v1c0 .6.4 1 1 1s1-.4 1-1v-1h3v1c0 .6.4 1 1 1s1-.4 1-1v-1h2c.6 0 1-.4 1-1v-2.2c0-.7-.2-1.4-.6-2.1l-2-3.3c-.3-.5-.4-1-.4-1.5V9.4c0-1.2-.4-2.3-1.2-3.2l-4.1-4.9c-.4-.5-1.2-.5-1.5 0l-4.1 4.9c-.7.9-1.2 2-1.2 3.2v7.4c0 .5-.1 1.1-.4 1.5l-2 3.3c-.4.6-.6 1.3-.6 2.1V26h.1zm2-2.2c0-.4.1-.7.3-1l2-3.3c.5-.8.7-1.7.7-2.6V9.4c0-.7.2-1.4.7-1.9l3.3-4 3.3 4c.5.6.7 1.2.7 1.9v7.4c0 .9.2 1.8.7 2.6l2 3.3c.2.3.3.7.3 1V25h-6v-3c0-.6-.4-1-1-1s-1 .4-1 1v3h-6v-1.2z" fill="#EF00B3"/><path d="M22 18c1.7 0 3-1.3 3-3s-1.3-3-3-3-3 1.3-3 3 1.3 3 3 3zm0-4c.6 0 1 .4 1 1s-.4 1-1 1-1-.4-1-1 .4-1 1-1z" fill="#EF00B3"/><path d="M32 13h7c.6 0 1 .4 1 1v22c0 .6.4 1 1 1s1-.4 1-1V14c0-1.7-1.3-3-3-3h-7c-.6 0-1 .4-1 1s.4 1 1 1z" fill="#000"/><path d="M43 39H7c-.6 0-1 .4-1 1s.4 1 1 1h35v1c0 .6-.4 1-1 1H3c-.6 0-1-.4-1-1v-1h1c.6 0 1-.4 1-1V14c0-.6.4-1 1-1h7c.6 0 1-.4 1-1s-.4-1-1-1H5c-1.7 0-3 1.3-3 3v25H1c-.6 0-1 .4-1 1v2c0 1.7 1.3 3 3 3h38c1.7 0 3-1.3 3-3v-2c0-.6-.4-1-1-1z" fill="#000"/><path d="M32 16h5v11.1c-2 .4-3.5 2-3.9 4-1.4.3-2.6 1.1-3.3 2.3-1.1-1.5-2.9-2.4-4.8-2.4-.6 0-1 .4-1 1s.4 1 1 1c1.9 0 3.4 1.3 3.9 3H15.1c.4-1.7 2-3 3.9-3 .6 0 1-.4 1-1s-.4-1-1-1c-1.9 0-3.7.9-4.8 2.4-.7-1.2-1.9-2-3.3-2.3-.4-2-1.9-3.6-3.9-4V16h5c.6 0 1-.4 1-1s-.4-1-1-1H6c-.6 0-1 .4-1 1v22c0 .6.4 1 1 1h32c.6 0 1-.4 1-1V15c0-.6-.4-1-1-1h-6c-.6 0-1 .4-1 1s.4 1 1 1zM7 29.2c1.2.4 2 1.5 2 2.8 0 .6.4 1 1 1 1.7 0 3 1.3 3 3H7v-6.8zM37 36h-6c0-1.7 1.3-3 3-3 .6 0 1-.4 1-1 0-1.3.8-2.4 2-2.8V36z" fill="#000"/></g></svg>